<svg width="50" height="50" viewBox="0 0 50 50" fill="none" xmlns="http://www.w3.org/2000/svg">
<path d="M1.04529 27.5236C-0.348429 26.1298 -0.348429 23.8702 1.04529 22.4764L22.4764 1.04529C23.8702 -0.348429 26.1298 -0.348429 27.5236 1.04529L48.9547 22.4764C50.3484 23.8702 50.3484 26.1298 48.9547 27.5236L27.5236 48.9547C26.1298 50.3484 23.8702 50.3484 22.4764 48.9547L1.04529 27.5236Z" fill="#EE513B"/>
<path d="M18.1231 5.46704L15.9529 7.63729L21.5581 13.2425C21.3313 13.729 21.2047 14.2715 21.2047 14.8436C21.2047 16.4679 22.2252 17.8538 23.66 18.3951V32.1068C22.2252 32.6481 21.2047 34.034 21.2047 35.6583C21.2047 37.754 22.9036 39.4529 24.9993 39.4529C27.095 39.4529 28.794 37.754 28.794 35.6583C28.794 34.1858 27.9552 32.909 26.7293 32.2801V18.4138L32.0874 23.7718C31.8716 24.2484 31.7516 24.7776 31.7516 25.3347C31.7516 27.4304 33.4506 29.1293 35.5463 29.1293C37.642 29.1293 39.3409 27.4304 39.3409 25.3347C39.3409 23.239 37.642 21.5401 35.5463 21.5401C35.139 21.5401 34.7468 21.6042 34.379 21.7229L28.6245 15.9684C28.7347 15.6131 28.794 15.2352 28.794 14.8436C28.794 12.7479 27.095 11.0489 24.9993 11.0489C24.6077 11.0489 24.23 11.1083 23.8745 11.2184L18.1231 5.46704Z" fill="white"/>
</svg>
