<svg width="627" height="800" viewBox="0 0 627 800" fill="none" xmlns="http://www.w3.org/2000/svg">
<path d="M493.368 0H0V800H626.684V133.317L493.368 0Z" fill="#FFF5DC"/>
<path d="M513.999 66.6596H0V0H493.368L513.999 66.6596Z" fill="#007934"/>
<path d="M145.647 630.807C130.099 630.807 116.549 629.269 105 626.196V572.142C116.85 574.93 127.655 576.331 137.428 576.331C152.533 576.331 163.341 571.895 169.86 563.029C176.375 554.157 179.633 540.293 179.633 521.437V234.399H248.488V521.016C248.488 556.774 239.826 584.012 222.499 602.733C205.175 621.445 179.557 630.807 145.647 630.807Z" fill="#007934"/>
<path d="M521.913 455.646C521.913 483.305 511.366 505.093 490.262 521.016C469.157 536.939 439.802 544.904 402.191 544.904C367.541 544.904 336.888 538.761 310.235 526.466V466.125C332.149 475.344 350.696 481.839 365.874 485.611C381.054 489.386 394.935 491.27 407.526 491.27C422.627 491.27 434.213 488.543 442.282 483.097C450.356 477.646 454.391 469.551 454.391 458.791C454.391 452.789 452.615 447.441 449.056 442.762C445.5 438.082 440.285 433.578 433.399 429.251C426.513 424.921 412.48 418.011 391.307 408.508C371.459 399.707 356.576 391.259 346.662 383.158C336.74 375.056 328.815 365.628 322.892 354.871C316.968 344.115 314.008 331.542 314.008 317.157C314.008 290.06 323.745 268.759 343.215 253.254C362.685 237.752 389.604 230 423.956 230C440.841 230 456.94 231.884 472.27 235.656C487.592 239.428 503.623 244.734 520.355 251.579L498.146 302.067C480.819 295.363 466.492 290.687 455.164 288.028C443.837 285.38 432.691 284.048 421.737 284.048C408.703 284.048 398.708 286.915 391.75 292.639C384.788 298.371 381.312 305.842 381.312 315.061C381.312 320.789 382.718 325.78 385.532 330.042C388.34 334.303 392.821 338.418 398.966 342.398C405.108 346.379 419.656 353.539 442.613 363.878C472.967 377.567 493.777 391.29 505.028 405.048C516.287 418.809 521.913 435.674 521.913 455.646Z" fill="#007934"/>
<path d="M493.368 133.317H626.684L493.368 0V133.317Z" fill="#D1D3D3"/>
</svg>
