<svg width="50" height="55" viewBox="0 0 50 55" fill="none" xmlns="http://www.w3.org/2000/svg">
<path d="M22.7441 0.586773C24.1103 -0.193827 25.8898 -0.197353 27.2548 0.586773C34.1221 4.46019 40.9916 8.32754 47.8577 12.2033C49.1492 12.9295 50.013 14.3641 49.9999 15.8495V39.1535C50.0095 40.7004 49.0603 42.1693 47.6978 42.879C40.853 46.7311 34.0118 50.5878 27.1682 54.4399C25.7738 55.2358 23.9586 55.1745 22.6077 54.3134C20.5556 53.1259 18.5 51.9443 16.4478 50.7581C16.0284 50.5085 15.5557 50.3099 15.2596 49.904C15.5214 49.5518 15.9894 49.5079 16.3697 49.3542C17.2263 49.0823 18.013 48.6458 18.7999 48.2223C18.9989 48.0864 19.2418 48.1385 19.4326 48.2601C21.1873 49.2644 22.9266 50.2979 24.6872 51.2926C25.0628 51.5091 25.4431 51.2217 25.7642 51.0431C32.481 47.2537 39.206 43.4786 45.9217 39.688C46.1705 39.5686 46.308 39.3049 46.2878 39.0328C46.2925 31.3453 46.289 23.6565 46.2902 15.969C46.3186 15.6603 46.1397 15.3764 45.86 15.2501C39.039 11.4157 32.2215 7.57534 25.4017 3.73992C25.2836 3.65884 25.1436 3.61533 25.0002 3.61512C24.8568 3.61491 24.7167 3.65801 24.5983 3.73875C17.7785 7.57534 10.9622 11.4192 4.14234 15.2534C3.86369 15.38 3.67667 15.6591 3.70984 15.969C3.71102 23.6565 3.70984 31.3453 3.70984 39.034C3.69801 39.1667 3.72722 39.2999 3.79353 39.4156C3.85985 39.5313 3.96008 39.6239 4.08073 39.681C5.90063 40.7112 7.72289 41.7341 9.54397 42.7607C10.5699 43.3119 11.8295 43.6394 12.9599 43.2171C13.9573 42.86 14.6565 41.8439 14.6375 40.7868C14.6469 33.1441 14.6328 25.5003 14.6446 17.8589C14.6196 17.5196 14.9421 17.2393 15.2725 17.2712C16.147 17.2654 17.0226 17.2595 17.897 17.2736C18.262 17.2654 18.5132 17.6307 18.4681 17.9725C18.4645 25.6635 18.4775 33.3547 18.4622 41.0457C18.4645 43.0955 17.6209 45.3258 15.7215 46.3287C13.3816 47.5387 10.4894 47.2821 8.17777 46.1219C6.17654 45.1248 4.26676 43.9481 2.30105 42.88C0.935043 42.1742 -0.00944672 40.6994 0.000168901 39.1537V15.8495C-0.0141564 14.3334 0.884022 12.8726 2.21569 12.1571C9.05927 8.30188 15.9017 4.44374 22.7441 0.586773Z" fill="#8CC84B"/>
<path d="M28.7143 16.7295C31.6991 16.5378 34.8944 16.6159 37.5803 18.0837C39.6599 19.2084 40.8128 21.569 40.8495 23.8752C40.7914 24.1863 40.4656 24.3579 40.1681 24.3365C39.3021 24.3353 38.4359 24.3483 37.5699 24.3306C37.2026 24.3447 36.9891 24.0066 36.943 23.6824C36.6941 22.579 36.0913 21.4862 35.0508 20.954C33.4537 20.1557 31.6018 20.1959 29.8602 20.2125C28.5888 20.2799 27.2216 20.3898 26.1444 21.1361C25.3175 21.7015 25.0663 22.8427 25.3614 23.7618C25.6397 24.4217 26.4029 24.6346 27.0273 24.8309C30.6243 25.77 34.436 25.6765 37.9644 26.9124C39.4252 27.4162 40.8542 28.3956 41.3542 29.9223C42.0082 31.9685 41.7215 34.4144 40.2631 36.0571C39.0804 37.4088 37.3578 38.1446 35.6398 38.5442C33.3542 39.0529 30.9823 39.0658 28.6612 38.84C26.4786 38.5916 24.2074 38.0192 22.5225 36.5348C21.0817 35.286 20.378 33.3403 20.4479 31.4624C20.4645 31.1452 20.7809 30.9241 21.0852 30.9501C21.9573 30.9431 22.8294 30.9407 23.7015 30.9513C24.0498 30.9264 24.308 31.2269 24.3259 31.5546C24.4868 32.606 24.8826 33.7094 25.801 34.3327C27.5734 35.4741 29.7974 35.3959 31.8269 35.4279C33.5082 35.3534 35.3956 35.3309 36.7677 34.2216C37.4916 33.5889 37.7061 32.5303 37.5105 31.6197C37.2985 30.8508 36.4928 30.4926 35.8009 30.2583C32.25 29.137 28.3957 29.5439 24.8791 28.2759C23.4515 27.7723 22.0709 26.8201 21.5224 25.3561C20.7571 23.284 21.1078 20.7211 22.7191 19.1338C24.2902 17.555 26.5581 16.9472 28.7143 16.7295Z" fill="#8CC84B"/>
</svg>
