<svg width="50" height="50" viewBox="0 0 50 50" fill="none" xmlns="http://www.w3.org/2000/svg">
<path d="M25 50C38.8071 50 50 38.8071 50 25C50 11.1929 38.8071 0 25 0C11.1929 0 0 11.1929 0 25C0 38.8071 11.1929 50 25 50Z" fill="#8892BF"/>
<path d="M22.2128 14.2857H25.2128L24.365 18.7932H27.0607C28.5391 18.8248 29.6403 19.1552 30.3652 19.7845C31.1043 20.4136 31.3218 21.6096 31.0175 23.3716L29.5609 31.2302H26.5173L27.9086 23.7255C28.0534 22.9387 28.01 22.3803 27.7782 22.05C27.5464 21.7196 27.0464 21.5545 26.2782 21.5545L23.865 21.5309L22.0823 31.2302H19.0823L22.2128 14.2857Z" fill="white"/>
<path fill-rule="evenodd" clip-rule="evenodd" d="M8.46593 18.7934H14.2921C16.0021 18.8089 17.2414 19.3441 18.0096 20.398C18.7779 21.4521 19.0314 22.8916 18.7705 24.7168C18.6693 25.5509 18.4445 26.3688 18.0966 27.1713C17.7632 27.9736 17.2996 28.6971 16.7054 29.3423C15.9805 30.1604 15.2052 30.6795 14.3791 30.9C13.553 31.1204 12.6978 31.2304 11.8138 31.2304H9.20508L8.37897 35.7143H5.35715L8.46593 18.7934ZM9.70509 28.5636L11.0051 21.5073H11.4443C11.6038 21.5073 11.7704 21.4993 11.9443 21.4838C13.1039 21.468 14.0674 21.5861 14.8357 21.8377C15.6182 22.0893 15.8791 23.0413 15.6182 24.6932C15.2996 26.66 14.6761 27.8084 13.7487 28.1388C12.8213 28.4536 11.6617 28.6029 10.2703 28.5871H9.96597C9.879 28.5871 9.79206 28.5791 9.70509 28.5636Z" fill="white"/>
<path fill-rule="evenodd" clip-rule="evenodd" d="M40.0652 18.7934H34.2389L31.1302 35.7143H34.152L34.9782 31.2304H37.587C38.4709 31.2304 39.3261 31.1204 40.1522 30.9C40.9784 30.6795 41.7536 30.1604 42.4784 29.3423C43.0727 28.6971 43.5363 27.9736 43.8697 27.1713C44.2175 26.3688 44.4423 25.5509 44.5436 24.7168C44.8045 22.8916 44.5511 21.4521 43.7827 20.398C43.0145 19.3441 41.7754 18.8089 40.0652 18.7934ZM36.7782 21.5073L35.4782 28.5636C35.5652 28.5791 35.6522 28.5871 35.7391 28.5871H36.0434C37.4348 28.6029 38.5943 28.4536 39.5218 28.1388C40.4491 27.8084 41.0727 26.66 41.3914 24.6932C41.6523 23.0413 41.3914 22.0893 40.6088 21.8377C39.8405 21.5861 38.877 21.468 37.7173 21.4838C37.5434 21.4993 37.377 21.5073 37.2173 21.5073H36.7782Z" fill="white"/>
</svg>
