<svg width="59" height="54" viewBox="0 0 59 54" fill="none" xmlns="http://www.w3.org/2000/svg">
<path d="M29.5008 32.223C32.3347 32.223 34.632 29.8623 34.632 26.9503C34.632 24.0382 32.3347 21.6775 29.5008 21.6775C26.6669 21.6775 24.3696 24.0382 24.3696 26.9503C24.3696 29.8623 26.6669 32.223 29.5008 32.223Z" fill="#00D8FF"/>
<path d="M29.5008 16.2305C36.3888 16.2305 42.7883 17.2463 47.6126 18.9522C53.4255 21.0084 57 24.1257 57 26.9485C57 29.8898 53.2118 33.2023 46.9699 35.3264C42.2508 36.933 36.0395 37.7729 29.5008 37.7729C22.7961 37.7729 16.4491 36.9853 11.6757 35.309C5.63727 33.1884 2 29.8341 2 26.9485C2 24.1483 5.41344 21.0554 11.1449 19.0028C15.9878 17.269 22.5451 16.2305 29.5008 16.2305Z" stroke="#00D8FF" stroke-width="3" stroke-miterlimit="10"/>
<path d="M20.4193 21.6217C23.8599 15.4899 27.9143 10.3007 31.7635 6.85933C36.4013 2.71221 40.8152 1.08821 43.1942 2.49788C45.6734 3.9668 46.5738 8.99388 45.246 15.6136C44.2422 20.618 41.8479 26.5651 38.5802 32.3868C35.2312 38.3548 31.3956 43.6119 27.5989 47.0237C22.795 51.3398 18.1488 52.9011 15.7171 51.4601C13.3567 50.0609 12.4546 45.4781 13.5856 39.3498C14.542 34.1676 16.9431 27.8128 20.4193 21.6217Z" stroke="#00D8FF" stroke-width="3" stroke-miterlimit="10"/>
<path d="M20.4289 32.399C16.9781 26.2724 14.6279 20.0726 13.6478 14.927C12.4676 8.72724 13.3019 3.98593 15.6792 2.57277C18.1566 1.09863 22.8436 2.80801 27.7611 7.29492C31.4797 10.6875 35.2968 15.7896 38.5729 21.606C41.932 27.5688 44.4502 33.6082 45.4286 38.6911C46.6681 45.1244 45.6643 50.0399 43.2343 51.4844C40.8756 52.8871 36.5618 51.4025 31.9596 47.3338C28.0731 43.8959 23.9135 38.5848 20.4289 32.399Z" stroke="#00D8FF" stroke-width="3" stroke-miterlimit="10"/>
</svg>
