<svg width="20" height="18" viewBox="0 0 20 18" fill="none" xmlns="http://www.w3.org/2000/svg">
<path d="M6.45792 9.15405L15.4645 3.60693C15.6263 3.50751 15.7929 3.72638 15.6539 3.85532L8.22085 10.7647C7.9596 11.0079 7.79104 11.3333 7.74331 11.6866L7.49011 13.563C7.45659 13.8136 7.10464 13.8384 7.03549 13.596L6.0617 10.1743C5.95018 9.78397 6.11272 9.36713 6.45792 9.15405Z" fill="#5E7286"/>
<path d="M0.353242 8.34961L4.96165 10.0696L6.7454 15.8061C6.85955 16.1735 7.3088 16.3093 7.60701 16.0655L10.1758 13.9714C10.4451 13.752 10.8286 13.741 11.11 13.9453L15.7432 17.3091C16.0622 17.541 16.5142 17.3662 16.5942 16.9807L19.9882 0.654634C20.0756 0.233579 19.6618 -0.117711 19.2609 0.0373675L0.347851 7.3334C-0.118868 7.5134 -0.114806 8.17418 0.353242 8.34961ZM6.45794 9.15399L15.4645 3.60687C15.6264 3.50745 15.7929 3.72632 15.6539 3.85527L8.22088 10.7646C7.95963 11.0078 7.79107 11.3333 7.74334 11.6866L7.49013 13.563C7.45662 13.8135 7.10466 13.8384 7.03552 13.5959L6.06173 10.1742C5.95021 9.78391 6.11275 9.36707 6.45794 9.15399Z" fill="#758CA3"/>
</svg>
